<svg xmlns="http://www.w3.org/2000/svg" viewBox="0 0 48 48" xmlns:xlink="http://www.w3.org/1999/xlink" xml:space="preserve" width="100%" height="100%"><g xmlns="http://www.w3.org/2000/svg" fill="currentColor" transform="scale(3)"><path fill-rule="evenodd" d="M11.354 5.854a.5.5 0 0 0 0-.708l-3-3a.5.5 0 0 0-.708 0l-3 3a.5.5 0 1 0 .708.708L8 3.207l2.646 2.647a.5.5 0 0 0 .708 0" style="fill: rgb(0, 0, 0);"></path><path fill-rule="evenodd" d="M8 10a.5.5 0 0 0 .5-.5V3a.5.5 0 0 0-1 0v6.5a.5.5 0 0 0 .5.5m-4.8 1.6c0-.22.18-.4.4-.4h8.8a.4.4 0 0 1 0 .8H3.6a.4.4 0 0 1-.4-.4" style="fill: rgb(0, 0, 0);"></path></g></svg>