<svg xmlns="http://www.w3.org/2000/svg" viewBox="0 0 48 48" xmlns:xlink="http://www.w3.org/1999/xlink" xml:space="preserve" width="100%" height="100%"><g xmlns="http://www.w3.org/2000/svg" fill="currentColor" transform="scale(3)"><path fill-rule="evenodd" d="M11.354 10.146a.5.5 0 0 1 0 .708l-3 3a.5.5 0 0 1-.708 0l-3-3a.5.5 0 0 1 .708-.708L8 12.793l2.646-2.647a.5.5 0 0 1 .708 0" style="fill: rgb(0, 0, 0);"></path><path fill-rule="evenodd" d="M8 6a.5.5 0 0 1 .5.5V13a.5.5 0 0 1-1 0V6.5A.5.5 0 0 1 8 6M2 3.5a.5.5 0 0 1 .5-.5h11a.5.5 0 0 1 0 1h-11a.5.5 0 0 1-.5-.5" style="fill: rgb(0, 0, 0);"></path></g></svg>